<svg id="Capa_1" enable-background="new 0 0 510 510" height="512" viewBox="0 0 510 510" width="512" xmlns="http://www.w3.org/2000/svg"><g><path d="m294.074 48.547v-48.547h-126v80h63v30h-63v34h63v30h-63v34h63v30h-63v34h63v30h-63v34h63v30h-63v34h63v30h-63v80h126v-48.547c107.165-7.712 192-97.357 192-206.453s-84.835-198.741-192-206.453zm0 286.038v-159.17c37.519 7.057 66 40.047 66 79.585s-28.481 72.528-66 79.585z"/><path d="m24.074 0h110v64h-110z"/><path d="m24.074 94h110v243.83h-110z"/><path d="m28.414 422.32 50.66 86.319 50.66-86.319c5.752-9.801 4.34-14.937 4.34-54.49h-110c0 39.681-1.39 44.725 4.34 54.49z"/></g></svg>